<?xml version="1.0" encoding="UTF-8" standalone="no"?>
<svg width="358px" height="507px" viewBox="0 0 358 507" version="1.1" xmlns="http://www.w3.org/2000/svg" xmlns:xlink="http://www.w3.org/1999/xlink">
    <!-- Generator: Sketch 39.1 (31720) - http://www.bohemiancoding.com/sketch -->
    <title>Slice 1</title>
    <desc>Created with Sketch.</desc>
    <defs></defs>
    <g id="Page-1" stroke="none" stroke-width="1" fill="none" fill-rule="evenodd" opacity="0.15">
        <g id="Group-2" transform="translate(0.000000, 1.000000)" fill="#F7F7F7">
            <path d="M355.097297,334.210879 C354.12973,326.48346 346.389189,320.687896 338.648649,321.653823 L136.427027,342.904226 L135.459459,342.904226 L149.972973,253.072978 L262.210811,253.072978 L253.502703,305.233057 L283.497297,302.335275 L293.172973,240.515922 C294.140541,236.652212 292.205405,231.822575 290.27027,228.924793 C287.367568,226.027011 283.497297,224.095156 279.627027,224.095156 L154.810811,224.095156 L162.551351,173.866931 L167.389189,173.866931 C173.194595,173.866931 177.064865,169.037294 177.064865,164.207658 C177.064865,159.378021 172.227027,154.548384 167.389189,154.548384 L106.432432,154.548384 C100.627027,154.548384 96.7567568,159.378021 96.7567568,164.207658 C96.7567568,169.037294 101.594595,173.866931 106.432432,173.866931 L108.367568,173.866931 L79.3405405,348.69979 L13.5459459,355.461282 C5.80540541,356.42721 0,363.188701 0,371.882048 C0,376.711685 1.93513514,420.178418 29.9945946,455.917731 C31.9297297,457.849586 34.8324324,459.781441 37.7351351,459.781441 L39.6702703,459.781441 C118.043243,443.360675 163.518919,449.15624 208.027027,453.985877 C243.827027,457.849586 278.659459,461.713296 327.037838,454.951804 C329.940541,454.951804 331.875676,453.019949 333.810811,450.122167 C347.356757,425.973982 363.805405,386.370959 355.097297,334.210879 L355.097297,334.210879 Z" id="Shape"></path>
            <ellipse id="Oval" cx="220.605405" cy="282.0508" rx="15.4810811" ry="15.4548384"></ellipse>
            <ellipse id="Oval" cx="176.097297" cy="282.0508" rx="15.4810811" ry="15.4548384"></ellipse>
            <g id="Group" transform="translate(38.702703, 466.610063)">
                <path d="M235.118919,38.5699658 C210.92973,38.5699658 188.675676,35.6721836 166.421622,33.7403288 C135.459459,29.8766192 103.52973,26.978837 59.9891892,30.8425466 C46.4432432,31.808474 31.9297297,33.7403288 17.4162162,36.638111 C9.67567568,38.5699658 1.93513514,32.7744014 0.967567568,25.0469822 C1.37667655e-14,17.3195631 4.83783784,9.59214388 12.5783784,8.62621648 C28.0594595,5.72843429 43.5405405,3.7965795 58.0540541,1.8647247 C104.497297,-1.99898488 137.394595,0.898797308 170.291892,4.7625069 C205.124324,8.62621648 238.989189,12.4899261 285.432432,5.72843429 C293.172973,4.7625069 300.913514,10.5580713 301.881081,18.2854905 C302.848649,26.0129096 297.043243,33.7403288 289.302703,34.7062562 C269.951351,37.6040384 251.567568,38.5699658 235.118919,38.5699658 L235.118919,38.5699658 Z" id="Shape"></path>
            </g>
            <path d="M128.686486,131.366126 C125.783784,131.366126 121.913514,130.400199 119.978378,127.502416 C115.140541,122.672779 115.140541,114.94536 119.978378,109.149796 L134.491892,94.6608849 L119.978378,80.171974 C115.140541,75.342337 115.140541,67.6149178 119.978378,61.8193534 C124.816216,56.9897164 132.556757,56.9897164 138.362162,61.8193534 L162.551351,85.9675383 C167.389189,90.7971753 167.389189,98.5245945 162.551351,104.320159 L138.362162,128.468344 C135.459459,130.400199 131.589189,131.366126 128.686486,131.366126 L128.686486,131.366126 Z" id="Shape"></path>
            <path d="M36.7675676,54.0919342 C33.8648649,54.0919342 31.9297297,53.1260068 29.9945946,51.194152 L11.6108108,33.8074589 C9.67567568,31.8756041 8.70810811,29.9437493 8.70810811,27.0459671 C8.70810811,24.1481849 9.67567568,22.2163301 11.6108108,20.2844753 L29.027027,2.89778219 C32.8972973,-0.965927397 38.7027027,-0.965927397 42.572973,2.89778219 C46.4432432,6.76149178 46.4432432,12.5570562 42.572973,16.4207658 L31.9297297,27.0459671 L43.5405405,38.6370959 C47.4108108,42.5008055 47.4108108,48.2963699 43.5405405,52.1600794 C41.6054054,53.1260068 38.7027027,54.0919342 36.7675676,54.0919342 L36.7675676,54.0919342 Z" id="Shape"></path>
            <path d="M60.9567568,90.7971753 C58.0540541,90.7971753 56.1189189,89.8312479 54.1837838,87.8993931 C50.3135135,84.0356835 50.3135135,78.2401192 54.1837838,74.3764096 L85.1459459,43.4667329 C89.0162162,39.6030233 94.8216216,39.6030233 98.6918919,43.4667329 C102.562162,47.3304425 102.562162,53.1260068 98.6918919,56.9897164 L67.7297297,87.8993931 C65.7945946,89.8312479 62.8918919,90.7971753 60.9567568,90.7971753 L60.9567568,90.7971753 Z" id="Shape"></path>
        </g>
    </g>
</svg>